<?xml version="1.0" encoding="utf-8"?>
<!-- Generator: Adobe Illustrator 25.1.0, SVG Export Plug-In . SVG Version: 6.00 Build 0)  -->
<svg version="1.1" id="Layer_1" xmlns="http://www.w3.org/2000/svg" xmlns:xlink="http://www.w3.org/1999/xlink" x="0px" y="0px"
	 viewBox="0 0 788.9 790.5" style="enable-background:new 0 0 788.9 790.5;" xml:space="preserve">
<style type="text/css">
	.st0{fill:#F2F2F2;}
	.st1{fill:#FFDD71;}
	.st2{fill:#FCF1C5;}
	.st3{fill:#515151;}
	.st4{fill:#FFFFFF;}
	.st5{fill:none;stroke:#B2C3FB;stroke-width:3;stroke-linecap:round;stroke-linejoin:round;}
	.st6{fill:none;stroke:#1B3C87;stroke-width:3.69;stroke-linecap:round;stroke-linejoin:round;}
	.st7{fill:#BC883B;}
	.st8{fill:#F2CB4E;}
	.st9{fill:#3C3744;}
	.st10{fill:#FFD561;}
	.st11{fill:#FFDA73;}
	.st12{fill:#8088DC;}
	.st13{fill:#FB5D64;}
	.st14{fill:#1B3C87;}
	.st15{fill:none;stroke:#1B3C87;stroke-width:3.14;stroke-linecap:round;stroke-linejoin:round;}
	.st16{fill:#999999;}
	.st17{fill:none;stroke:#EAF0FF;stroke-width:3.69;stroke-linecap:round;stroke-linejoin:round;}
</style>
<g id="Layer_2_1_">
	<g id="Layer_1-2">
		<path class="st0" d="M613.8,177.9c79.2,69.3,165.9,141.2,174.4,221.3c8.7,80.3-61.3,168.9-140.6,218.6s-167.8,60.5-274.4,78
			c-106.3,17.7-230.4,42.5-302.2-7.2s-91.5-173.8-46.7-253s154.3-113.5,226.1-183.1c71.9-69.3,106.1-173.8,159.2-192.4
			C462.6,41.3,534.5,108.6,613.8,177.9"/>
		<rect x="483.9" y="31.6" class="st1" width="240.7" height="182.3"/>
		<rect x="613.8" y="65.9" class="st2" width="70.5" height="126.4"/>
		<path class="st3" d="M590.6,93.7c0,16.1-13,29.1-29.1,29.1c-16.1,0-29.1-13-29.1-29.1c0-16.1,13-29.1,29.1-29.1c0,0,0,0,0,0
			C577.6,64.6,590.6,77.7,590.6,93.7"/>
		<path class="st4" d="M727.5,404c0,39.3-31.8,71.1-71.1,71.1s-71.1-31.8-71.1-71.1c0-39.3,31.8-71.1,71.1-71.1c0,0,0,0,0,0
			C695.7,332.9,727.5,364.7,727.5,404"/>
		<rect x="619.2" y="271.9" class="st5" width="152.4" height="152.4"/>
		<path class="st6" d="M369.4,788.7h378.1"/>
		<path class="st6" d="M1.9,788.7h278.6"/>
		<path class="st7" d="M436.6,274.7l-1.5,7.5l-10.4,3.2c0,0-5.1-16.1-5.9-19.7c-5,3.7-33.8,11.8-38.8,12.5
			c-0.7-3.9-0.7-37.4,27.3-37.4c24.6,0,35.7,24.7,36.3,27.6C442.2,269.2,436.6,271.2,436.6,274.7"/>
		<path class="st8" d="M443.5,339.2c-6.2,0-51.6,45.8-53.5,55.4l-14.6,75.6l75.7-21.2l4.4-96.3l-10.8-13.5L443.5,339.2z"/>
		<path class="st4" d="M350.1,472.1c-0.1-5.3,43.3-142.4,48.2-147.1c3.3-3.3,7.8-5,12.4-4.8c2.2,0.1,12.5,5,14.7,10.2
			c-3.7,8.9-12.8,13.8-12.8,13.8l-17.5,108.3L350.1,472.1z"/>
		<path class="st9" d="M403,554.4l62.8,77.7l-30.5,30.6l-92.2-80.6l21.8-30L403,554.4z"/>
		<path class="st9" d="M386.5,693.5c-8.5-7.7-107.7-131.3-107.7-146.6c0-34.1,38.7-46.2,49.3-48.9c14.5-1.3,79.1-6.7,89.2-6.3
			c7.3,7.9,92.3,26.2,104.6,24.7c0,6.2-9.8,49.3-79.3,49.3c-7.3,0-62.1-2.2-63.1-2.2c0,12.8,35.1,96.3,38.5,102"/>
		<path class="st10" d="M476.4,316.9c56.3,0,68.4,101.5,68.4,130.3c0,36.7-14.9,66.1-22,68.8c-20.1,7.7-93.9-17.6-98.6-29.6
			C401.4,428,439,316.9,476.4,316.9"/>
		<path class="st6" d="M428.4,247.4c4.7,4.2,8.5,9.2,11.4,14.8c0.5,1,1,1.9,1.4,2.9"/>
		<path class="st6" d="M381.8,292c-10.5-20.4-6.1-43.6,9.9-51.9c5.2-2.6,11.1-3.5,16.9-2.5"/>
		<path class="st6" d="M437.4,308.2c-2.1,2.4-4.7,4.4-7.6,5.9c-10.9,5.6-24.4,2.8-35.2-6"/>
		<path class="st6" d="M433,271.1c2-4.9,7.5-7.3,12.5-5.4c4.9,2,7.3,7.5,5.4,12.5c-1.4,3.6-5,6-8.9,6c-1.4,0-2.9-0.4-4.2-1"/>
		<path class="st6" d="M441.1,341.2c-1.4-5-6.5-20.6-12.8-26.4"/>
		<path class="st6" d="M446.2,286.6c2,6.6,19.6,30.2,23.9,33.5c-0.3,2.9-5.9,8.4-12.2,13"/>
		<path class="st6" d="M423.7,281l7.8-2.4l1.5-7.5"/>
		<path class="st6" d="M402.6,267.3c5.8-1.9,10.8-3.9,12.6-5.2c0.5,2.6,3.4,11.9,4.9,16.7"/>
		<path class="st6" d="M376.4,274.6c1.9-0.3,7.4-1.6,13.6-3.4"/>
		<path class="st6" d="M433.8,492.2c-7.9-3.9-13.4-7.8-14.6-10.8c-7-18-8.3-41-5.6-64.3"/>
		<path class="st6" d="M532,384.3c5.9,23.5,7.8,46.5,7.8,57.9c0,36.7-14.9,66.1-22,68.8c-9.4,3.6-30.6,0-51-6.1"/>
		<path class="st6" d="M463.9,313.3c2.4-0.9,4.9-1.4,7.5-1.4c14.8,0,26.6,7.1,35.9,18"/>
		<path class="st6" d="M424.8,368.6c3.8-11.1,8.9-21.8,15-31.9"/>
		<path class="st6" d="M389.8,327.5c1.7-4.2,2.9-6.9,3.5-7.4c3.3-3.3,7.8-5,12.4-4.8c2.2,0.1,12.5,5,14.7,10.2"/>
		<path class="st6" d="M357.3,424.3c7.4-23.6,16.7-52.4,24.1-73.8"/>
		<path class="st6" d="M345,466.4c0-1,1.5-6.5,3.9-14.9"/>
		<path class="st6" d="M407.3,324.3c2.1,0.3,7.3,3.5,10,6.6"/>
		<path class="st6" d="M401.3,331.9c2.1,0.3,7.3,3.5,10,6.6"/>
		<path class="st6" d="M390.1,446.9c0.2-4.8,12-87.6,17.2-103.9"/>
		<path class="st6" d="M415.5,353.1c7.3-7.8,16.1-16.2,23.2-19.5"/>
		<path class="st6" d="M185.9,395l46,74.8"/>
		<path class="st6" d="M516.9,511.3c0,6.2-9.8,49.3-79.3,49.3c-7.3,0-62.1-2.2-63.1-2.2c0,12.8,35.1,96.3,38.5,102"/>
		<path class="st6" d="M323,493c-10.2,3.8-49.3,14.8-49.3,48.9c0,15.3,99.2,138.9,107.7,146.6"/>
		<path class="st6" d="M376.5,694l45.5-29"/>
		<path class="st6" d="M381.5,702l46.9-28.4"/>
		<path class="st6" d="M400.2,631.3l29.2,26.3"/>
		<path class="st6" d="M417.3,573.2l43.4,53.9"/>
		<path class="st6" d="M465.8,623.2l-38.4,37.3"/>
		<path class="st6" d="M470.6,630.4l-38.4,37.3"/>
		<path class="st6" d="M165.1,755.5v33.1"/>
		<path class="st6" d="M165.1,493v201"/>
		<path class="st6" d="M318.1,493v295.7"/>
		<path class="st11" d="M496.1,341.4c26.8,9.3,13.1,66.7,5.6,68.6s-53-16-54.4-20.9S464.8,330.5,496.1,341.4"/>
		<path class="st6" d="M462.1,344.9c7.8-7.8,17.5-12.5,29-8.5c26.8,9.3,13.1,66.7,5.6,68.6s-53-16-54.4-20.9
			c-0.3-1.1,0.5-5,2.3-10.1"/>
		<path class="st4" d="M450.4,392c-2.2,3.2-14.2,42.2-14.2,42.2s-85.3,36.8-89.5,38.7c-1.5-2.1-6.6-6-17-6
			c-19,0-22.2,12.6-22.2,15.3s28.8,8.7,36.5,8.5s115.8-16.6,119.7-18.6s29.7-63,29.7-63C486.4,408.8,454.1,398.8,450.4,392"/>
		<path class="st6" d="M396.7,477.6c-27.3,4.2-54,8-57.7,8.1c-7.7,0.2-36.5-5.8-36.5-8.5s3.3-15.3,22.2-15.3c10.4,0,15.5,3.9,17,6
			c4.2-1.9,89.5-38.7,89.5-38.7s12.1-39,14.2-42.2"/>
		<path class="st6" d="M488.4,404.1c0,0-25.9,61.1-29.7,63c-1.1,0.5-10.6,2.3-23.9,4.5"/>
		<rect x="413.8" y="562.9" class="st12" width="165" height="15.3"/>
		<path class="st6" d="M512.1,573.2H408.8v-15.3h165v15.3h-29"/>
		<rect x="120.4" y="484.7" class="st12" width="251.1" height="12.6"/>
		<path class="st6" d="M185.9,480.4h181.3V493H116.1v-12.6h38.6"/>
		<rect x="236.2" y="474.1" class="st13" width="88.4" height="10.6"/>
		<rect x="231.9" y="469.8" class="st6" width="88.4" height="10.6"/>
		<path class="st4" d="M390.1,704.8l29,31.7l-15.9,44l48.6-37.8l-28.2-58.2"/>
		<path class="st6" d="M435.5,714.3l-16.9-34.8"/>
		<path class="st6" d="M385.1,699.8l29,31.7l-15.9,44l48.6-37.8l-5-10.2"/>
		<path class="st4" d="M469.5,641.3l16.1,27.4l11.1,5.8l-21.2,49.3l-4.8-31l-28-25.5"/>
		<path class="st6" d="M445,668.8l-7.1-6.5"/>
		<path class="st6" d="M464.5,636.3l16.1,27.4l11.1,5.8l-21.2,49.3l-4.8-31l-6-5.5"/>
		<path class="st6" d="M451.4,573.2v214"/>
		<path class="st6" d="M531.2,654.8v132.4"/>
		<path class="st6" d="M531.2,573.2v45.1"/>
		<path class="st14" d="M403.2,278.5c0.5,1.7,1.6,2.9,2.5,2.6s1.3-1.9,0.8-3.5s-1.6-2.9-2.5-2.6S402.7,276.9,403.2,278.5"/>
		<path class="st15" d="M392.1,297.2c-0.1,0.6-0.3,1.2-0.6,1.8"/>
		<path class="st15" d="M391,287.3c0.8,2.2,1.2,4.5,1.3,6.9"/>
		<path class="st15" d="M418.4,296.2c0.3,2.2-1.3,5.7-4.3,7.8"/>
		<rect x="21" y="254.4" class="st2" width="263.4" height="79.5"/>
		<path class="st16" d="M261.8,293.8c0,12.8-10.4,23.2-23.2,23.2s-23.2-10.4-23.2-23.2c0-12.8,10.4-23.2,23.2-23.2c0,0,0,0,0,0
			C251.4,270.6,261.7,281,261.8,293.8"/>
		<path class="st17" d="M194.7,280.3H63.8"/>
		<path class="st17" d="M194.7,307.2h-69.4"/>
		<rect x="217.9" class="st2" width="156.6" height="198.7"/>
		<path class="st5" d="M278.8,71.2l45.9,107.9l96.4-66.9L278.8,71.2z"/>
		<rect x="52" y="99.9" class="st2" width="90.1" height="37.7"/>
		<rect x="10.1" y="146.4" class="st2" width="90.2" height="37.6"/>
	</g>
</g>
</svg>
