<?xml version="1.0" encoding="utf-8"?>
<!-- Generator: Adobe Illustrator 25.1.0, SVG Export Plug-In . SVG Version: 6.00 Build 0)  -->
<svg version="1.1" id="Layer_1" xmlns="http://www.w3.org/2000/svg" xmlns:xlink="http://www.w3.org/1999/xlink" x="0px" y="0px"
	 viewBox="0 0 905.6 1035.1" style="enable-background:new 0 0 905.6 1035.1;" xml:space="preserve">
<style type="text/css">
	.st0{fill:#F2F2F2;}
	.st1{fill:#3B3744;}
	.st2{fill:#FFFFFF;}
	.st3{fill:none;stroke:#1B3C87;stroke-width:3.19;stroke-linecap:round;stroke-linejoin:round;}
	.st4{fill:#B2C3FB;}
	.st5{fill:#D8DFFF;}
	.st6{fill:#FFD561;}
	.st7{fill:#515151;}
	.st8{fill:#FB5D64;}
	.st9{fill:#FCF1C5;}
	.st10{fill:#1B3C87;}
	.st11{fill:#ECC953;}
	.st12{fill:#FFDA73;}
	.st13{fill:none;stroke:#D8DFFF;stroke-width:3.19;stroke-linecap:round;stroke-linejoin:round;}
</style>
<g id="Layer_2_1_">
	<g id="vector">
		<path class="st0" d="M731.9,86.7c82.5,51.4,153.6,134.4,169.8,227c16.5,92.6-21.9,195-72.7,296.7
			c-50.7,101.9-113.8,203.7-216,273.6c-102.2,70.2-243.4,108.8-351.5,65.4C153.7,906.1,78.9,780.6,38,659.9
			c-40.7-120.7-47.3-236.6-26.5-347C32.1,202.8,79.8,98.3,159.4,46.4S350.2-4.8,452.9,5.5C555.2,15.6,649.4,35.5,731.9,86.7z"/>
		<path class="st1" d="M780.1,1035.1c-6.8-11.9-97.8-209-97.8-224.5c0-5.3,28.8-167.2,41.6-169.1s43.4-14.8,53.3-18.3
			c1.1,13.1,68.9,411.9,68.9,411.9H780.1z"/>
		<path class="st1" d="M569.4,1035.1c0-25.8,0.9-408.3,0.9-408.3s164.3,6.3,178.2,6.9c0,79.6-114.7,339.5-114.7,401.4H569.4z"/>
		<path class="st2" d="M662.7,300.7c-4.9-7.7-27.7-46-29.8-52.6s-16-122.9-16-122.9l-39.5,2c0,0-4.3,124.4,0,133.8
			s35.7,70.3,35.7,70.3l24.3,15.5L662.7,300.7z"/>
		<path class="st3" d="M570.8,236.7c0.3,10.1,0.8,17.2,1.7,19.2c4.3,9.4,35.7,70.3,35.7,70.3l24.3,15.5l25.2-46
			c-4.9-7.7-27.7-46-29.8-52.6s-16-122.9-16-122.9l-39.5,2c0,0-1.6,46.7-1.9,85.1"/>
		<path class="st4" d="M842.2,17.8l29.3-2.8c6.2-0.6,11.8,4,12.4,10.2l6.6,68c0.6,6.2-4,11.8-10.2,12.4l-29.3,2.8l0,0L842.2,17.8
			L842.2,17.8z"/>
		<polygon class="st5" points="296.9,70.9 222.9,123.8 305.8,161.5 305.8,161.5 851,108.4 842.2,17.8 		"/>
		<path class="st6" d="M697.2,290.7c104.7,0,80.7,290.3,79.9,332.5c-16.4,19.8-186.1,15-207.7,1.6
			C564,578.6,583.9,290.7,697.2,290.7z"/>
		<path class="st3" d="M767.3,399.3c13.6,86.4,5.3,194.4,4.8,218.9c-9.3,11.2-67.9,14.5-120.8,12.9"/>
		<path class="st3" d="M567.5,533.5c10.5-100.8,43.7-247.8,124.7-247.8c28.5,0,47.4,21.5,59.9,53.6"/>
		<path class="st3" d="M610.2,628.7c-22.4-2.1-39.8-5.1-45.8-8.9c-0.8-6.6-1-18.2-0.6-33.2"/>
		<path class="st3" d="M711.5,756.2c-15.6,45.1-32.1,86.5-36.9,100.9c-9.4,27.8-45.7,154.2-45.7,173"/>
		<path class="st3" d="M743.5,627.7c0,18.6-6.4,46.8-15.4,77.1"/>
		<path class="st3" d="M564.4,947.6v82.5"/>
		<path class="st3" d="M564.4,619.8v265.9"/>
		<path class="st3" d="M772.1,618.2c0,23.9,60,375.3,68.8,411.9"/>
		<path class="st3" d="M737,951c-22.2-49.3-46.6-105.8-52-122.1"/>
		<path class="st3" d="M775.1,1030.1c-3.1-4.7-10.1-18.9-19-37.8"/>
		
			<ellipse transform="matrix(7.088905e-02 -0.9975 0.9975 7.088905e-02 -296.3849 528.3441)" class="st7" cx="135.4" cy="423.3" rx="17.5" ry="17.5"/>
		<circle class="st8" cx="473.1" cy="452.6" r="16.6"/>
		<circle class="st2" cx="323.4" cy="824.2" r="16.6"/>
		
			<rect x="164.6" y="157.5" transform="matrix(0.759 -0.651 0.651 0.759 -129.8411 213.0148)" class="st9" width="116.6" height="248.8"/>
		<path class="st2" d="M733.5,254.7c-1.4,10.2-4,46.8-2.9,59.5c-5.7,5.5-32.8,6.6-44-3.3c2.2-10.5,7.2-19.7,4.4-41.6
			S733.5,254.7,733.5,254.7z"/>
		<path class="st3" d="M684.9,297.8c2.1-7.8,4.1-16.9,2-32.5c-2.8-21.9,42.5-14.6,42.5-14.6c-1.4,10.2-4,46.8-2.9,59.5
			c-4.4,4.2-21.8,5.9-34.6,1.7"/>
		<ellipse class="st2" cx="698.7" cy="207.2" rx="50.2" ry="65.8"/>
		<path class="st3" d="M645.7,217.4c-0.8-4.7-1.2-9.4-1.2-14.2c0-36.4,22.5-65.8,50.2-65.8s50.2,29.5,50.2,65.8
			c0.1,12.8-2.8,25.4-8.5,36.8"/>
		<path class="st3" d="M711.3,265.4c-5.2,2.4-10.9,3.7-16.6,3.7c-18.2,0-34.2-12.8-43-31.9"/>
		<ellipse class="st10" cx="672.4" cy="207.6" rx="2.2" ry="5.8"/>
		<path class="st3" d="M663,209c0,4.7-4.2,12.6-8.3,16.9"/>
		<path class="st3" d="M667.5,248.5c2.2,0,9.9-2.8,15.5-10.8"/>
		<path class="st11" d="M721.6,224.4c2.2,2.9,4.4,24.2,9,25.6s24.3-36,24.3-51c0-27.1-16-87.9-39.5-87.9c-8.5,0-9.3,13.2-9.3,18.3
			c-2.8-7-15.7-22-31.9-22c-27.6,0-27.2,26-22.3,46.5c-4.8-2.6-5-3.4-10.8-3.4c-5.3,0-8.1,6.9-8.1,14.1c0,17.4,9.3,23.6,16.6,26.5
			s28.2,4.3,42,4C693.2,199,705.9,224.7,721.6,224.4z"/>
		<path class="st3" d="M656.8,188.6c9.9,1.2,19.8,1.6,29.8,1.5c1.7,3.9,14.4,29.6,30.1,29.3c2.2,2.9,4.4,24.2,9,25.6
			c1.2,0.4,3.5-1.9,6.1-5.8"/>
		<path class="st3" d="M650.8,109c-8.5,9-7.3,25.7-4,39.9c-4.8-2.6-5-3.4-10.8-3.4c-5.3,0-8.1,6.9-8.1,14.1c0,12.3,4.7,19,10,22.9"
			/>
		<path class="st3" d="M723.8,112.8c-4.1-4.2-8.6-6.7-13.4-6.7c-8.5,0-9.3,13.2-9.3,18.3c-2.8-7-15.7-22-31.9-22c-0.7,0-1.4,0-2.1,0
			"/>
		<path class="st3" d="M742.9,218.3c4-9.1,7-18.4,7-24.3c0-16.5-5.9-45.4-15.8-65.5"/>
		<circle class="st2" cx="713.8" cy="215.7" r="15.8"/>
		<path class="st3" d="M701.8,198c7.6-4.4,17.3-1.8,21.6,5.8s1.8,17.3-5.8,21.6c-2.4,1.4-5.2,2.1-8,2.1"/>
		<path class="st2" d="M668,337.9c-11-5-90.1-33.7-97-40.6S512.8,191.7,511.1,187c1.5-1.6,4.2-9.3,4-18s-5.8-11.1-6.2-38.3
			c-0.1-9.3-13.8,0.5-13.6,19.8c-16.2-1.2-36.8-40.8-49.3-23.4c43,86.8,90.4,220.5,94.4,224.5s106.8,55.9,109.1,54.5
			S672.7,343.6,668,337.9z"/>
		<path class="st12" d="M766.7,418.9c8.1-31.7-40.5-82.6-93.1-87.6c-8.7,4.7-34.2,63.1-31.2,81.7
			C662.3,434.1,753.9,469.1,766.7,418.9z"/>
		<path class="st3" d="M665.2,329.7c-10.5,13.7-30.4,61.7-27.8,78.3c3.7,3.9,9.9,8.3,17.5,12.6"/>
		<path class="st3" d="M668.7,326.3c-1.4,0.9-2.5,2.1-3.4,3.4"/>
		<path class="st3" d="M693.8,435.8c29.8,7.5,60.8,5.8,67.9-22c6.4-25-22.6-62-60.9-79"/>
		<path class="st3" d="M448,134.5c-2.3-4.2-4.6-8.3-7-12.4c-3.3-4.7,11.6-13.8,35.2,17.3"/>
		<path class="st3" d="M555.9,358.5c-10.2-5.6-17.9-10-20.5-11.8c-8.9-6.3-35.3-109.6-78.9-196"/>
		<path class="st3" d="M637.4,401.1c-3-1.1-29.8-15-55.3-28.5"/>
		<path class="st3" d="M520.9,211.3c-8.2-15.7-14.3-27.8-14.8-29.3c1.5-1.6,4.2-9.3,4-18s-5.8-11.1-6.2-38.3
			c-0.1-9.3-13.8,0.5-13.6,19.8"/>
		<path class="st3" d="M663,332.9c-11-5-90.1-33.7-97-40.6c-2.8-2.8-13.2-21.3-24.6-42.3"/>
		<polygon class="st13" points="446,524.1 230,579.6 386.1,738.9 		"/>
	</g>
</g>
</svg>
